<svg aria-hidden="true" style="position: absolute; width: 0; height: 0; overflow: hidden;" version="1.1" xmlns="http://www.w3.org/2000/svg" xmlns:xlink="http://www.w3.org/1999/xlink">
<defs>
<symbol id="close" viewBox="0 0 32 32">
<path d="M18.506 16l11.2-11.182c0.335-0.335 0.523-0.789 0.523-1.262s-0.188-0.927-0.523-1.262c-0.335-0.335-0.789-0.523-1.262-0.523s-0.927 0.188-1.262 0.523l-11.182 11.2-11.182-11.2c-0.335-0.335-0.789-0.523-1.262-0.523s-0.927 0.188-1.262 0.523c-0.335 0.335-0.523 0.789-0.523 1.262s0.188 0.927 0.523 1.262l11.2 11.182-11.2 11.182c-0.167 0.165-0.299 0.362-0.389 0.579s-0.137 0.449-0.137 0.684 0.046 0.467 0.137 0.684c0.090 0.217 0.223 0.413 0.389 0.578 0.165 0.167 0.362 0.299 0.579 0.389s0.449 0.137 0.684 0.137c0.235 0 0.467-0.046 0.684-0.137s0.413-0.223 0.579-0.389l11.182-11.2 11.182 11.2c0.165 0.167 0.362 0.299 0.579 0.389s0.449 0.137 0.684 0.137c0.235 0 0.467-0.046 0.684-0.137s0.413-0.223 0.579-0.389c0.167-0.165 0.299-0.362 0.389-0.578s0.137-0.449 0.137-0.684-0.046-0.467-0.137-0.684c-0.090-0.217-0.222-0.413-0.389-0.578l-11.2-11.182z"></path>
</symbol>
<symbol id="facebook" viewBox="0 0 32 32">
<path d="M21.969 5.313h2.921v-5.088c-0.504-0.069-2.237-0.225-4.256-0.225-4.212 0-7.097 2.649-7.097 7.519v4.481h-4.648v5.688h4.648v14.312h5.699v-14.311h4.46l0.708-5.688h-5.169v-3.919c0.001-1.644 0.444-2.769 2.735-2.769z"></path>
</symbol>
<symbol id="hamburger" viewBox="0 0 32 32">
<path d="M0.594 6.088c-0.419 0.181-0.656 0.662-0.569 1.131 0.056 0.294 0.369 0.638 0.65 0.719 0.162 0.050 4.906 0.063 15.462 0.050l15.231-0.019 0.169-0.131c0.331-0.244 0.431-0.444 0.431-0.838s-0.1-0.594-0.431-0.838l-0.169-0.131-15.294-0.013c-12.619-0.013-15.325 0-15.481 0.069z"></path>
<path d="M0.594 16.087c-0.419 0.181-0.656 0.663-0.569 1.131 0.056 0.294 0.369 0.637 0.65 0.719 0.162 0.050 4.906 0.063 15.462 0.050l15.231-0.019 0.169-0.131c0.331-0.244 0.431-0.444 0.431-0.837s-0.1-0.594-0.431-0.837l-0.169-0.131-15.294-0.012c-12.619-0.012-15.325 0-15.481 0.069z"></path>
<path d="M0.594 26.087c-0.419 0.181-0.656 0.663-0.569 1.131 0.056 0.294 0.369 0.637 0.65 0.719 0.162 0.050 4.906 0.063 15.462 0.050l15.231-0.019 0.169-0.131c0.331-0.244 0.431-0.444 0.431-0.837s-0.1-0.594-0.431-0.837l-0.169-0.131-15.294-0.012c-12.619-0.012-15.325 0-15.481 0.069z"></path>
</symbol>
<symbol id="instagram" viewBox="0 0 32 32">
<path d="M16.316 32c-0.106 0-0.212 0-0.319-0.001-2.508 0.006-4.826-0.058-7.080-0.195-2.066-0.126-3.953-0.84-5.455-2.065-1.45-1.182-2.44-2.78-2.942-4.75-0.438-1.715-0.461-3.398-0.483-5.026-0.016-1.168-0.033-2.552-0.036-3.96 0.003-1.414 0.020-2.798 0.036-3.966 0.022-1.628 0.045-3.311 0.483-5.026 0.503-1.97 1.493-3.568 2.942-4.75 1.503-1.225 3.389-1.939 5.456-2.065 2.254-0.137 4.572-0.201 7.086-0.195 2.509-0.005 4.826 0.058 7.080 0.195 2.067 0.126 3.953 0.84 5.455 2.065 1.45 1.182 2.44 2.78 2.942 4.75 0.438 1.715 0.461 3.398 0.483 5.026 0.016 1.168 0.033 2.552 0.036 3.96v0.006c-0.003 1.408-0.020 2.792-0.036 3.96-0.022 1.628-0.045 3.311-0.483 5.026-0.503 1.97-1.492 3.568-2.942 4.75-1.503 1.225-3.389 1.939-5.455 2.065-2.159 0.131-4.376 0.195-6.768 0.195zM15.997 29.5c2.468 0.006 4.733-0.057 6.934-0.19 1.563-0.095 2.917-0.602 4.027-1.507 1.026-0.837 1.732-1.991 2.1-3.431 0.364-1.428 0.385-2.96 0.405-4.442 0.016-1.16 0.033-2.535 0.036-3.929-0.003-1.394-0.020-2.769-0.036-3.929-0.020-1.482-0.041-3.015-0.405-4.443-0.367-1.44-1.074-2.594-2.1-3.431-1.11-0.905-2.465-1.412-4.027-1.507-2.201-0.134-4.467-0.196-6.929-0.19-2.467-0.006-4.733 0.056-6.934 0.19-1.563 0.095-2.917 0.602-4.027 1.507-1.026 0.837-1.732 1.991-2.1 3.431-0.364 1.428-0.385 2.96-0.406 4.443-0.016 1.161-0.032 2.537-0.036 3.932 0.003 1.389 0.020 2.765 0.036 3.926 0.020 1.482 0.041 3.015 0.406 4.442 0.367 1.44 1.074 2.594 2.1 3.431 1.11 0.905 2.465 1.412 4.027 1.507 2.201 0.134 4.467 0.196 6.928 0.19zM15.937 23.812c-4.308 0-7.813-3.505-7.813-7.812s3.505-7.813 7.813-7.813c4.308 0 7.813 3.505 7.813 7.813s-3.505 7.812-7.813 7.812zM15.937 10.687c-2.929 0-5.313 2.383-5.313 5.313s2.383 5.313 5.313 5.313c2.929 0 5.313-2.383 5.313-5.313s-2.383-5.313-5.313-5.313zM24.625 5.687c-1.036 0-1.875 0.839-1.875 1.875s0.839 1.875 1.875 1.875c1.036 0 1.875-0.839 1.875-1.875s-0.839-1.875-1.875-1.875z"></path>
</symbol>
<symbol id="logo" viewBox="0 0 32 32">
<path d="M4.861 11.994c-0 0.013 0.021 0.065 0.047 0.116 0.055 0.109 0.080 0.258 0.067 0.391-0.008 0.080-0.478 2.991-0.493 3.058l-0.007 0.030-0.689 0c-0.379 0-0.695 0.005-0.704 0.010s-0.207 0.391-0.441 0.858c-0.301 0.599-0.428 0.84-0.434 0.822-0.004-0.014-0.071-0.387-0.148-0.828s-0.146-0.815-0.153-0.832l-0.013-0.030h-1.505v0.034c0 0.019 0.012 0.050 0.027 0.068s0.039 0.073 0.055 0.121c0.057 0.18 0.054 0.212-0.213 1.844-0.133 0.813-0.245 1.494-0.249 1.514l-0.008 0.036h0.697l-0.009-0.036c-0.005-0.020-0.018-0.046-0.028-0.058s-0.032-0.056-0.047-0.099c-0.023-0.066-0.027-0.099-0.021-0.211 0.006-0.13 0.285-1.952 0.302-1.971 0.005-0.005 0.108 0.526 0.229 1.179l0.22 1.189 0.504 0.007 0.579-1.187c0.318-0.653 0.582-1.189 0.587-1.192 0.011-0.007-0.244 1.755-0.287 1.982-0.061 0.324-0.065 0.352-0.057 0.375 0.008 0.020 0.066 0.022 0.701 0.022h0.693v-0.033c0-0.018-0.014-0.054-0.032-0.079-0.049-0.072-0.066-0.165-0.057-0.317 0.004-0.075 0.117-0.804 0.255-1.646 0.136-0.832 0.247-1.519 0.247-1.527 0-0.011 0.096-0.015 0.346-0.015 0.268 0 0.346-0.004 0.346-0.017 0-0.009-0.022-0.061-0.050-0.115-0.081-0.159-0.077-0.21 0.095-1.307 0.079-0.503 0.148-0.925 0.153-0.938s0.106 0.503 0.228 1.16c0.12 0.651 0.221 1.19 0.224 1.2 0.004 0.012 0.067 0.017 0.254 0.017h0.248l0.577-1.183c0.318-0.651 0.583-1.189 0.589-1.196s0.009 0.004 0.004 0.027c-0.004 0.022-0.064 0.433-0.133 0.914s-0.148 0.992-0.175 1.135c-0.027 0.143-0.045 0.27-0.041 0.282 0.008 0.020 0.073 0.022 0.708 0.022 0.674 0 0.699-0.001 0.699-0.025 0-0.014-0.012-0.040-0.028-0.060s-0.040-0.069-0.055-0.111c-0.023-0.065-0.026-0.097-0.020-0.215 0.004-0.087 0.1-0.711 0.254-1.653 0.136-0.833 0.247-1.523 0.247-1.534 0-0.018-0.081-0.020-0.689-0.020-0.379 0-0.696 0.005-0.704 0.010s-0.207 0.391-0.441 0.858c-0.341 0.679-0.428 0.842-0.434 0.815-0.004-0.018-0.072-0.397-0.149-0.842s-0.148-0.816-0.155-0.825c-0.010-0.013-0.179-0.017-0.764-0.017-0.706 0-0.75 0.001-0.751 0.023zM10.427 12.588c-0.305 0.053-0.61 0.214-0.841 0.444-0.366 0.365-0.58 0.941-0.532 1.438 0.053 0.561 0.44 1.042 0.933 1.159 0.213 0.051 0.558 0.030 0.791-0.047 0.434-0.145 0.804-0.467 1.021-0.889 0.254-0.493 0.276-1 0.063-1.429-0.159-0.321-0.444-0.559-0.785-0.657-0.131-0.038-0.482-0.047-0.65-0.018zM13.48 12.621c-0.284 0.082-0.735 0.159-0.933 0.159-0.091 0-0.101 0.002-0.114 0.031-0.012 0.026-0.007 0.044 0.030 0.109 0.081 0.144 0.081 0.152-0.134 1.455-0.103 0.626-0.187 1.152-0.187 1.17v0.032h0.592c0.67 0 0.621 0.009 0.562-0.107-0.027-0.053-0.030-0.077-0.028-0.231s0.016-0.259 0.15-1.038c0.082-0.476 0.148-0.87 0.148-0.876 0-0.018 0.177-0.092 0.24-0.1 0.092-0.011 0.148 0.014 0.183 0.084 0.016 0.033 0.030 0.074 0.030 0.093s-0.084 0.51-0.186 1.092c-0.102 0.582-0.183 1.064-0.179 1.070s0.273 0.011 0.599 0.011h0.592v-0.031c0-0.017-0.012-0.058-0.027-0.091-0.060-0.135-0.057-0.167 0.126-1.255 0.189-1.124 0.189-1.122 0.116-1.276-0.057-0.121-0.133-0.199-0.254-0.258l-0.101-0.050-0.187 0.001c-0.168 0.001-0.198 0.005-0.294 0.037-0.13 0.044-0.317 0.131-0.475 0.222-0.065 0.037-0.122 0.065-0.125 0.062s0.006-0.068 0.021-0.144c0.032-0.166 0.033-0.192 0.006-0.203s-0.019-0.012-0.172 0.032zM19.311 12.608c-0.461 0.041-0.781 0.186-0.893 0.405-0.035 0.069-0.039 0.091-0.039 0.199 0 0.114 0.003 0.125 0.040 0.178 0.026 0.037 0.070 0.073 0.126 0.104 0.083 0.046 0.092 0.047 0.22 0.047 0.123 0 0.14-0.003 0.22-0.042 0.11-0.054 0.199-0.129 0.199-0.168 0-0.023-0.015-0.036-0.065-0.057-0.109-0.046-0.115-0.144-0.013-0.22 0.058-0.043 0.116-0.062 0.224-0.072 0.257-0.024 0.409 0.103 0.424 0.355 0.006 0.1-0.041 0.453-0.064 0.479-0.005 0.006-0.047 0.001-0.094-0.010-0.118-0.028-0.418-0.040-0.565-0.022-0.449 0.055-0.807 0.282-0.971 0.616-0.076 0.155-0.099 0.245-0.108 0.426-0.017 0.345 0.122 0.615 0.381 0.739 0.252 0.121 0.552 0.091 0.915-0.091l0.19-0.095v0.052c0 0.029 0.007 0.079 0.015 0.111l0.015 0.059h1.059l0.008-0.032c0.005-0.019-0.003-0.057-0.021-0.096-0.023-0.050-0.030-0.096-0.035-0.212-0.005-0.139 0.003-0.2 0.138-1.001 0.142-0.843 0.143-0.854 0.128-0.959-0.035-0.248-0.196-0.449-0.458-0.575-0.148-0.071-0.246-0.099-0.423-0.12-0.127-0.015-0.373-0.015-0.552 0zM15.773 12.681c-0.027 0.018-0.055 0.044-0.062 0.058-0.019 0.036-0.097 0.49-0.086 0.507 0.015 0.024 0.087 0.004 0.171-0.047 0.044-0.026 0.101-0.055 0.126-0.063 0.056-0.018 0.733-0.032 0.733-0.016-0 0.006-0.329 0.454-0.732 0.996-0.461 0.62-0.737 1.003-0.745 1.034-0.008 0.027-0.014 0.11-0.014 0.185-0 0.145 0.016 0.201 0.066 0.228 0.017 0.009 0.419 0.014 1.196 0.014h1.17l0.027-0.030c0.023-0.025 0.032-0.071 0.056-0.292 0.016-0.144 0.025-0.268 0.021-0.275-0.015-0.024-0.053-0.013-0.151 0.046-0.137 0.082-0.195 0.089-0.67 0.085l-0.394-0.004 0.765-1.040c0.421-0.572 0.779-1.070 0.797-1.107 0.042-0.087 0.047-0.255 0.008-0.29-0.022-0.020-0.12-0.022-1.128-0.022h-1.104l-0.049 0.033zM10.829 12.956c0.093 0.071 0.129 0.262 0.103 0.546-0.039 0.412-0.16 1.099-0.242 1.372-0.023 0.077-0.060 0.177-0.083 0.222-0.129 0.263-0.396 0.282-0.467 0.033-0.028-0.101-0.029-0.37-0.002-0.583 0.080-0.618 0.201-1.181 0.304-1.412 0.035-0.079 0.102-0.161 0.162-0.199 0.058-0.036 0.162-0.027 0.224 0.020zM19.621 14.178c0.007 0.008-0.013 0.164-0.052 0.404l-0.064 0.391-0.044 0.037c-0.116 0.098-0.283 0.139-0.37 0.092-0.080-0.044-0.1-0.095-0.099-0.255 0.001-0.216 0.068-0.403 0.19-0.533 0.118-0.126 0.188-0.158 0.332-0.153 0.053 0.002 0.102 0.009 0.108 0.017zM9.26 15.716c-0.205 0.053-0.385 0.088-0.638 0.125-0.102 0.015-0.19 0.031-0.195 0.037s-0.026 0.1-0.045 0.209c-0.019 0.109-0.038 0.215-0.042 0.235l-0.007 0.036h-0.164c-0.115 0-0.167 0.005-0.176 0.017-0.011 0.014-0.057 0.289-0.057 0.338 0 0.012 0.044 0.016 0.168 0.016 0.167 0 0.168 0 0.161 0.030-0.004 0.016-0.077 0.438-0.162 0.938-0.148 0.867-0.155 0.915-0.15 1.060 0.004 0.129 0.010 0.164 0.040 0.228 0.072 0.155 0.204 0.252 0.405 0.297 0.078 0.017 0.145 0.021 0.302 0.016 0.182-0.005 0.214-0.010 0.324-0.048 0.187-0.063 0.411-0.182 0.5-0.265l0.037-0.034v-0.19c0-0.104-0.005-0.19-0.012-0.19s-0.059 0.022-0.116 0.049c-0.113 0.053-0.233 0.071-0.302 0.045-0.051-0.020-0.092-0.114-0.092-0.212 0-0.058 0.245-1.565 0.276-1.695 0.007-0.029 0.010-0.030 0.219-0.030 0.19 0 0.213-0.002 0.219-0.023 0.012-0.038 0.048-0.272 0.048-0.311l0-0.036h-0.197c-0.109 0-0.2-0.003-0.204-0.006s0.019-0.151 0.051-0.328c0.032-0.177 0.055-0.329 0.051-0.338-0.009-0.024-0.047-0.019-0.24 0.031zM28.774 15.716c-0.205 0.053-0.384 0.088-0.638 0.125-0.102 0.015-0.19 0.031-0.195 0.037s-0.025 0.1-0.044 0.209-0.038 0.215-0.042 0.235l-0.007 0.036h-0.166c-0.159 0-0.166 0.001-0.178 0.030-0.011 0.025-0.053 0.288-0.053 0.328 0 0.008 0.068 0.013 0.167 0.013h0.168l-0.008 0.036c-0.004 0.020-0.077 0.442-0.162 0.938-0.147 0.859-0.154 0.908-0.149 1.054 0.004 0.13 0.010 0.164 0.040 0.228 0.072 0.155 0.204 0.252 0.405 0.297 0.078 0.017 0.145 0.021 0.302 0.016 0.182-0.005 0.214-0.010 0.324-0.047 0.193-0.065 0.404-0.178 0.5-0.266l0.037-0.034v-0.19c0-0.104-0.005-0.19-0.012-0.19s-0.059 0.022-0.116 0.049c-0.113 0.053-0.233 0.071-0.302 0.045-0.053-0.020-0.089-0.105-0.089-0.212-0-0.065 0.236-1.533 0.273-1.694 0.007-0.029 0.010-0.030 0.218-0.030 0.183 0 0.212-0.003 0.22-0.022 0.011-0.028 0.048-0.273 0.048-0.316v-0.033h-0.2c-0.195 0-0.2-0.001-0.2-0.028 0-0.016 0.024-0.165 0.054-0.332s0.050-0.309 0.046-0.316c-0.012-0.020-0.052-0.014-0.239 0.034zM19.61 16.233c-0.258 0.069-0.724 0.151-0.859 0.151-0.127 0-0.159 0.037-0.101 0.117 0.033 0.046 0.068 0.165 0.068 0.23 0 0.028-0.033 0.252-0.073 0.498s-0.127 0.781-0.194 1.189c-0.067 0.408-0.133 0.823-0.147 0.921-0.029 0.203-0.061 0.637-0.048 0.668 0.007 0.018 0.073 0.021 0.587 0.021 0.637 0 0.612 0.003 0.554-0.077-0.084-0.118-0.095-0.316-0.036-0.645 0.021-0.117 0.040-0.214 0.043-0.217s0.064 0.022 0.136 0.056c0.18 0.084 0.273 0.107 0.441 0.107 0.257 0 0.513-0.092 0.726-0.262 0.206-0.164 0.408-0.446 0.514-0.717 0.056-0.145 0.124-0.417 0.151-0.612 0.029-0.204 0.023-0.556-0.013-0.706-0.029-0.125-0.131-0.34-0.21-0.444-0.15-0.197-0.375-0.311-0.611-0.311-0.178 0-0.365 0.070-0.581 0.218-0.061 0.042-0.114 0.073-0.118 0.069s0-0.066 0.010-0.139c0.016-0.125 0.013-0.176-0.010-0.173-0.006 0.001-0.109 0.027-0.23 0.060zM6.145 16.207c-0.468 0.050-0.907 0.318-1.171 0.714-0.325 0.488-0.417 1.097-0.235 1.565 0.15 0.385 0.461 0.679 0.825 0.777 0.135 0.037 0.445 0.039 0.618 0.006 0.32-0.063 0.649-0.243 0.888-0.486 0.238-0.242 0.402-0.541 0.49-0.887 0.031-0.123 0.035-0.166 0.035-0.365 0-0.19-0.004-0.244-0.029-0.343-0.062-0.243-0.165-0.433-0.327-0.601-0.166-0.172-0.368-0.292-0.588-0.349-0.106-0.027-0.382-0.044-0.506-0.031zM11.47 16.207c-0.439 0.047-0.848 0.281-1.119 0.639-0.165 0.218-0.309 0.553-0.358 0.83-0.029 0.166-0.027 0.432 0.004 0.583 0.102 0.49 0.453 0.885 0.892 1.003 0.135 0.037 0.445 0.039 0.618 0.006 0.32-0.063 0.642-0.239 0.884-0.484 0.241-0.244 0.405-0.541 0.493-0.889 0.031-0.125 0.035-0.164 0.035-0.372-0-0.206-0.004-0.246-0.035-0.359-0.066-0.246-0.18-0.444-0.354-0.611-0.16-0.155-0.349-0.262-0.555-0.316-0.106-0.027-0.382-0.044-0.506-0.031zM23.117 16.213c-0.223 0.030-0.477 0.129-0.679 0.265-0.366 0.246-0.638 0.675-0.739 1.166-0.038 0.187-0.032 0.531 0.013 0.696 0.079 0.291 0.277 0.585 0.5 0.742 0.249 0.176 0.518 0.242 0.846 0.207 0.753-0.081 1.369-0.661 1.538-1.447 0.033-0.156 0.034-0.468 0.001-0.622-0.103-0.478-0.464-0.863-0.925-0.982-0.12-0.031-0.409-0.044-0.555-0.024zM16.808 16.227c-0.423 0.061-0.741 0.274-0.899 0.6-0.080 0.165-0.108 0.29-0.109 0.471-0 0.163 0.016 0.242 0.070 0.352 0.133 0.269 0.383 0.432 0.894 0.583 0.271 0.080 0.413 0.163 0.472 0.276 0.064 0.122-0.027 0.283-0.204 0.361-0.146 0.064-0.381 0.075-0.535 0.024-0.102-0.033-0.188-0.115-0.197-0.186-0.009-0.069 0.022-0.137 0.076-0.169 0.058-0.034 0.051-0.069-0.031-0.148-0.247-0.239-0.625-0.206-0.765 0.066-0.046 0.089-0.056 0.247-0.024 0.36 0.074 0.255 0.34 0.441 0.724 0.504 0.179 0.029 0.554 0.029 0.721-0 0.317-0.056 0.568-0.174 0.757-0.357 0.212-0.205 0.309-0.436 0.308-0.734-0-0.17-0.027-0.29-0.094-0.426-0.132-0.266-0.385-0.424-0.925-0.579-0.116-0.033-0.249-0.078-0.294-0.1-0.335-0.162-0.204-0.472 0.216-0.511 0.289-0.027 0.523 0.152 0.376 0.287-0.024 0.021-0.048 0.039-0.053 0.039s-0.010 0.011-0.010 0.025c0 0.051 0.137 0.134 0.299 0.18 0.201 0.058 0.415-0.022 0.493-0.186 0.038-0.080 0.025-0.256-0.026-0.349-0.105-0.192-0.355-0.33-0.687-0.379-0.151-0.022-0.419-0.025-0.55-0.006zM30.681 16.232c-0.576 0.096-0.941 0.473-0.977 1.007-0.016 0.237 0.054 0.441 0.206 0.605 0.146 0.157 0.317 0.247 0.714 0.376 0.14 0.045 0.286 0.098 0.324 0.118 0.133 0.068 0.216 0.167 0.216 0.259 0 0.096-0.091 0.207-0.22 0.267-0.108 0.051-0.215 0.069-0.359 0.061-0.206-0.012-0.346-0.087-0.378-0.201-0.019-0.068 0.017-0.155 0.077-0.186 0.057-0.029 0.052-0.061-0.022-0.136-0.163-0.164-0.418-0.217-0.602-0.124-0.171 0.087-0.256 0.289-0.208 0.494s0.153 0.328 0.371 0.434c0.166 0.081 0.306 0.115 0.545 0.133 0.807 0.061 1.422-0.27 1.576-0.848 0.032-0.119 0.032-0.398 0-0.516-0.082-0.304-0.308-0.514-0.713-0.663-0.056-0.021-0.189-0.062-0.295-0.091-0.231-0.064-0.28-0.084-0.361-0.143-0.078-0.057-0.11-0.12-0.102-0.205 0.009-0.087 0.057-0.146 0.16-0.197 0.218-0.106 0.539-0.073 0.632 0.065 0.046 0.068 0.039 0.103-0.033 0.17l-0.063 0.059 0.057 0.051c0.032 0.028 0.103 0.070 0.16 0.094 0.092 0.039 0.116 0.044 0.229 0.044 0.111 0 0.135-0.004 0.195-0.035 0.083-0.043 0.16-0.129 0.18-0.202 0.021-0.076 0.005-0.209-0.034-0.294-0.091-0.198-0.384-0.358-0.733-0.401-0.156-0.019-0.412-0.017-0.543 0.005zM14.358 16.264c-0.169 0.053-0.628 0.134-0.822 0.144-0.156 0.009-0.163 0.010-0.167 0.039-0.002 0.016 0.011 0.062 0.030 0.1 0.075 0.152 0.075 0.153-0.052 0.897-0.234 1.373-0.292 1.73-0.283 1.753 0.008 0.021 0.050 0.023 0.581 0.023 0.527 0 0.573-0.002 0.585-0.023 0.009-0.017 0.004-0.037-0.020-0.078-0.046-0.078-0.061-0.186-0.045-0.326 0.007-0.064 0.073-0.442 0.145-0.839 0.125-0.683 0.134-0.726 0.174-0.788 0.095-0.148 0.256-0.251 0.389-0.251 0.068 0 0.083 0.005 0.116 0.038 0.050 0.050 0.065 0.127 0.035 0.178-0.027 0.048-0.028 0.081-0.002 0.103s0.146-0.009 0.257-0.067c0.094-0.049 0.12-0.070 0.18-0.15 0.072-0.096 0.107-0.224 0.098-0.365-0.011-0.178-0.075-0.292-0.208-0.37-0.057-0.033-0.073-0.036-0.208-0.036s-0.152 0.003-0.22 0.038c-0.109 0.057-0.261 0.217-0.352 0.37-0.043 0.071-0.079 0.128-0.081 0.126s0.005-0.084 0.016-0.183c0.011-0.098 0.021-0.221 0.022-0.272 0.003-0.113 0-0.114-0.171-0.061zM26.066 16.261c-0.192 0.064-0.701 0.15-0.886 0.15-0.092 0-0.101 0.002-0.114 0.031-0.012 0.026-0.009 0.040 0.020 0.083 0.019 0.028 0.043 0.090 0.054 0.138 0.025 0.106 0.038 0.015-0.203 1.431-0.123 0.722-0.18 1.088-0.172 1.103 0.011 0.022 0.049 0.023 0.587 0.020 0.657-0.004 0.612 0.006 0.547-0.126-0.064-0.13-0.057-0.209 0.1-1.077 0.096-0.534 0.144-0.766 0.165-0.808 0.040-0.082 0.174-0.213 0.262-0.256 0.054-0.027 0.093-0.036 0.151-0.036 0.068 0 0.083 0.005 0.116 0.038 0.050 0.050 0.065 0.127 0.035 0.178-0.027 0.048-0.028 0.081-0.001 0.103 0.017 0.014 0.035 0.013 0.101-0.005 0.192-0.053 0.312-0.148 0.387-0.306 0.041-0.087 0.044-0.102 0.044-0.232 0-0.125-0.004-0.147-0.038-0.219-0.044-0.093-0.087-0.142-0.169-0.19-0.055-0.032-0.072-0.035-0.206-0.035-0.141 0-0.149 0.002-0.23 0.045-0.109 0.059-0.245 0.202-0.344 0.363-0.043 0.070-0.079 0.125-0.081 0.124s0.006-0.089 0.018-0.195c0.012-0.105 0.022-0.227 0.023-0.271 0.002-0.076 0-0.080-0.032-0.082-0.018-0.001-0.078 0.013-0.133 0.031zM6.388 16.571c0.161 0.078 0.185 0.304 0.097 0.919-0.105 0.735-0.212 1.165-0.332 1.33-0.071 0.098-0.186 0.142-0.285 0.109-0.168-0.055-0.195-0.346-0.095-1.001 0.136-0.887 0.262-1.28 0.437-1.359 0.072-0.032 0.107-0.032 0.178 0.002zM11.695 16.562c0.062 0.026 0.111 0.082 0.138 0.16 0.040 0.115 0.030 0.411-0.028 0.808-0.123 0.833-0.241 1.242-0.391 1.355-0.136 0.103-0.295 0.058-0.348-0.096-0.025-0.074-0.034-0.364-0.016-0.524 0.049-0.438 0.165-1.048 0.248-1.31 0.075-0.237 0.139-0.341 0.238-0.385 0.065-0.029 0.101-0.031 0.159-0.007zM23.386 16.557c0.060 0.023 0.122 0.091 0.147 0.164 0.034 0.096 0.030 0.387-0.009 0.664-0.094 0.672-0.201 1.158-0.298 1.352-0.070 0.141-0.174 0.214-0.285 0.202-0.079-0.009-0.123-0.042-0.164-0.123-0.079-0.158-0.038-0.688 0.113-1.431 0.105-0.519 0.204-0.752 0.346-0.817 0.062-0.028 0.097-0.031 0.149-0.011zM20.161 16.822c0.027 0.023 0.059 0.072 0.077 0.116 0.028 0.070 0.030 0.095 0.030 0.327-0.001 0.287-0.028 0.479-0.131 0.927-0.081 0.35-0.127 0.459-0.24 0.562-0.066 0.061-0.127 0.081-0.238 0.082-0.090 0-0.209-0.044-0.209-0.078 0-0.012 0.072-0.436 0.16-0.944s0.16-0.927 0.16-0.932c0-0.005 0.043-0.030 0.096-0.055 0.132-0.063 0.228-0.065 0.295-0.005z"></path>
</symbol>
<symbol id="sortAsc" viewBox="0 0 32 32">
<path d="M10.667 0l-7.111 7.093h5.333v12.462h3.556v-12.462h5.333l-7.111-7.093z"></path>
<path d="M23.111 24.907v-12.462h-3.555v12.462h-5.333l7.111 7.093 7.111-7.093h-5.333z"></path>
</symbol>
<symbol id="sortDesc" viewBox="0 0 32 32">
<path d="M10.667 0l-7.111 7.093h5.333v12.462h3.556v-12.462h5.333l-7.111-7.093z"></path>
<path d="M23.111 24.907v-12.462h-3.555v12.462h-5.333l7.111 7.093 7.111-7.093h-5.333z"></path>
</symbol>
</defs>
</svg>
